<?xml version="1.0" encoding="UTF-8"?>
<svg version="1.1" xmlns="http://www.w3.org/2000/svg" width="160" height="160" viewbox="0 0 155 155">
<path d="M0 0 C1.01964844 0.00064453 2.03929688 0.00128906 3.08984375 0.00195312 C8.03096479 0.03086736 12.62468216 0.35258318 17.5 1.1875 C18.96682056 0.96721776 20.42699056 0.69648946 21.875 0.375 C27.02832323 -0.24371206 30.98443867 1.03265077 35.75 2.8125 C36.42337402 3.0602417 37.09674805 3.3079834 37.79052734 3.56323242 C42.4460231 5.42140248 45.87625712 7.71005729 49.5 11.1875 C49.5 11.8475 49.5 12.5075 49.5 13.1875 C50.386875 13.414375 51.27375 13.64125 52.1875 13.875 C55.28931965 15.10402288 56.76783312 16.14946122 58.94921875 18.59375 C60.56577939 20.32226326 60.56577939 20.32226326 62.89453125 22.09375 C69.68484589 27.58167633 73.19293361 32.45629649 74.5 41.1875 C74.80232355 48.85998139 74.57473382 55.12601238 69.5 61.1875 C68.69149528 62.72040324 67.90104599 64.2629114 67.125 65.8125 C64.14223614 71.2233064 60.75562567 73.3960524 54.9375 75.4375 C51.96916927 76.08513579 49.51597708 76.37028649 46.5 76.1875 C46.32082031 77.24195312 46.14164062 78.29640625 45.95703125 79.3828125 C44.79427144 83.43562765 42.78889066 84.8746108 39.23632812 86.953125 C38.56021484 87.31921875 37.88410156 87.6853125 37.1875 88.0625 C36.52298828 88.45179687 35.85847656 88.84109375 35.17382812 89.2421875 C28.31516817 93.14979198 21.71956131 93.99594333 13.90234375 92.78515625 C11.37771427 92.39474963 9.05368789 92.07805623 6.5 92.1875 C4.13046953 94.31577495 4.13046953 94.31577495 2.5 97.1875 C1.58992188 97.70828125 0.67984375 98.2290625 -0.2578125 98.765625 C-4.73265097 101.62462473 -6.69526252 106.17536715 -9.125 110.75 C-10.04663696 112.46398874 -10.97606433 114.17381636 -11.9140625 115.87890625 C-12.3157666 116.63373291 -12.7174707 117.38855957 -13.13134766 118.16625977 C-14.69652257 120.4777266 -16.09054865 121.77957442 -18.5 123.1875 C-22.25 122.875 -22.25 122.875 -25.5 122.1875 C-26.58056059 118.21590314 -26.35815614 115.76196843 -25.0625 111.875 C-24.63130859 110.55048828 -24.63130859 110.55048828 -24.19140625 109.19921875 C-23.96324219 108.53535156 -23.73507813 107.87148437 -23.5 107.1875 C-24.13808594 106.98253906 -24.77617188 106.77757812 -25.43359375 106.56640625 C-26.25988281 106.29699219 -27.08617187 106.02757812 -27.9375 105.75 C-28.76121094 105.48316406 -29.58492187 105.21632813 -30.43359375 104.94140625 C-32.5 104.1875 -32.5 104.1875 -33.5 103.1875 C-35.06037521 103.05526481 -36.62367031 102.95681471 -38.1875 102.875 C-42.98149364 102.41680089 -45.84110035 101.49793302 -49.5 98.1875 C-51.54057126 95.36613138 -53.28257116 92.54955425 -53.83984375 89.05859375 C-54.05769531 88.44113281 -54.27554688 87.82367188 -54.5 87.1875 C-56.42055967 86.22816699 -56.42055967 86.22816699 -58.75 85.75 C-63.21737233 84.4097883 -65.65251295 83.03998247 -68.5 79.1875 C-71.33253256 72.94493597 -71.87978115 67.39016473 -71.375 60.625 C-71.32085937 59.42713867 -71.32085937 59.42713867 -71.265625 58.20507812 C-70.66152243 48.45200118 -66.65002534 41.31646157 -61.5 33.1875 C-61.0359375 32.39859375 -60.571875 31.6096875 -60.09375 30.796875 C-56.98634287 25.72144335 -53.67462172 22.4717395 -48.8515625 19.01171875 C-46.30614993 17.03712129 -44.24620643 14.86503895 -42.0625 12.5 C-35.77654873 6.08309141 -28.60490578 4.10743417 -19.921875 2.6796875 C-17.42760391 2.24965819 -17.42760391 2.24965819 -14.921875 1.14453125 C-9.9445165 -0.24753819 -5.14131251 -0.06174775 0 0 Z M-15.5 6.1875 C-14.6044206 8.30893733 -14.6044206 8.30893733 -12.5 10.1875 C-10.17294367 10.68189292 -7.93240627 10.87529274 -5.55859375 11.01171875 C-3.5 11.1875 -3.5 11.1875 -1.5 12.1875 C-1.5 13.1775 -1.5 14.1675 -1.5 15.1875 C-3.75262187 14.98572772 -6.00222036 14.75000814 -8.25 14.5 C-10.12945312 14.30857422 -10.12945312 14.30857422 -12.046875 14.11328125 C-16.20002501 12.99982361 -16.97075456 11.5151725 -19.5 8.1875 C-24.31158243 7.25464218 -29.29413799 8.73996849 -33.5 11.125 C-37.85252743 14.14978674 -41.44449778 17.9641296 -45.109375 21.76953125 C-47.10201217 23.78496002 -49.09780393 25.55518681 -51.3125 27.3125 C-54.85856263 30.27737897 -57.81286847 33.84665116 -59.5 38.1875 C-59.24902169 40.22284337 -59.24902169 40.22284337 -58.5 42.1875 C-58.149375 43.425 -57.79875 44.6625 -57.4375 45.9375 C-57.128125 47.01 -56.81875 48.0825 -56.5 49.1875 C-57.82 49.1875 -59.14 49.1875 -60.5 49.1875 C-60.83 47.5375 -61.16 45.8875 -61.5 44.1875 C-65.51968754 47.47633526 -66.29118334 51.76032446 -67.01953125 56.73828125 C-67.74262237 66.0227712 -67.89701648 72.68874844 -62.1875 80.25 C-56.32900958 84.51205178 -46.89399291 82.54829679 -40.125 81.6875 C-28.0922212 80.16944998 -17.24406731 81.32893206 -5.5 84.1875 C-3.52366113 84.55712063 -1.54456901 84.91245419 0.4375 85.25 C3.43551242 85.77519926 6.1933055 86.39071023 9.125 87.25 C17.50520513 89.57783476 24.4129409 89.75228467 32.3046875 85.7734375 C37.4209083 82.80141534 41.7868529 80.09044395 43.96484375 74.41015625 C45.07215055 69.81119591 45.59248422 65.84326125 44.5 61.1875 C42.61423387 58.2153686 40.50325309 55.56650469 38.28515625 52.8359375 C35.97867248 49.41406442 35.77312696 47.09003046 36.12109375 43.0625 C36.5 41.1875 36.5 41.1875 37.5 38.1875 C41.0625 37 41.0625 37 44.5 36.1875 C44.5 37.5075 44.5 38.8275 44.5 40.1875 C43.860625 40.496875 43.22125 40.80625 42.5625 41.125 C40.56389179 42.0220163 40.56389179 42.0220163 39.5 43.1875 C39.5 49.41270088 41.9667394 52.57925326 45.90625 57.26953125 C47.5 59.1875 47.5 59.1875 48.5 61.1875 C50.15 60.8575 51.8 60.5275 53.5 60.1875 C54.7229731 55.97503711 54.26107158 52.51727262 53.55859375 48.2734375 C53.5 46.1875 53.5 46.1875 55.5 43.1875 C56.49 42.8575 57.48 42.5275 58.5 42.1875 C58.32984375 42.69152344 58.1596875 43.19554687 57.984375 43.71484375 C57.2019599 47.70894663 57.61124884 51.74003531 57.890625 55.78710938 C57.953125 57.75390625 57.953125 57.75390625 57.5 61.1875 C54.88674954 63.32282379 52.69106508 64.12381164 49.5 65.1875 C49.17 67.4975 48.84 69.8075 48.5 72.1875 C55.50799247 70.63621623 59.54042987 69.30683565 63.5 63.1875 C64.53161608 61.20362292 65.53523618 59.20473344 66.5 57.1875 C67.056875 56.548125 67.61375 55.90875 68.1875 55.25 C70.09604449 52.25085866 69.62464194 49.67747432 69.5 46.1875 C69.685625 45.54683594 69.87125 44.90617187 70.0625 44.24609375 C70.89595963 40.32436852 69.15018289 36.72269949 67.5 33.1875 C65.20817728 30.39552268 65.20817728 30.39552268 62.5 28.1875 C59.92008009 25.60758009 57.39517525 23.06695154 55 20.3125 C52.73731235 17.92439283 52.73731235 17.92439283 50.0625 18.1875 C47.40752343 19.15266168 47.40752343 19.15266168 44.75 20.75 C40.54430012 22.61021341 37.02456001 22.4589736 32.5 22.1875 C32.5 20.8675 32.5 19.5475 32.5 18.1875 C33.53125 18.414375 34.5625 18.64125 35.625 18.875 C39.9837817 19.22651465 41.82730775 18.42694649 45.5 16.1875 C45.25435367 14.2432541 45.25435367 14.2432541 44.5 12.1875 C41.81858688 10.59851445 39.35367546 9.3849426 36.5 8.1875 C35.23542969 7.60548828 35.23542969 7.60548828 33.9453125 7.01171875 C27.61836631 4.34339797 22.82151549 3.95191423 16.03125 4.92578125 C13.5 5.1875 13.5 5.1875 10.5 4.1875 C7.23317887 3.95949313 3.96146743 4.00234022 0.6875 4 C-0.20259766 3.98775391 -1.09269531 3.97550781 -2.00976562 3.96289062 C-6.91576934 3.95198031 -10.89751812 4.26282576 -15.5 6.1875 Z M-49.5 85.1875 C-48.99197232 89.55653809 -48.15725947 92.64448737 -45.5 96.1875 C-41.54075021 98.68622653 -37.62159421 98.59609733 -33.05859375 98.84375 C-30.5 99.1875 -30.5 99.1875 -27.5 101.1875 C-25.44290404 101.42805468 -25.44290404 101.42805468 -23.3125 101.3125 C-22.054375 101.27125 -20.79625 101.23 -19.5 101.1875 C-19.5 100.5275 -19.5 99.8675 -19.5 99.1875 C-20.21027344 99.05472656 -20.92054687 98.92195313 -21.65234375 98.78515625 C-22.57144531 98.60855469 -23.49054687 98.43195313 -24.4375 98.25 C-25.35402344 98.07597656 -26.27054688 97.90195313 -27.21484375 97.72265625 C-29.5 97.1875 -29.5 97.1875 -30.5 96.1875 C-32.24879568 96.08186805 -33.99924318 96.00303635 -35.75 95.9375 C-39.7856662 95.60250306 -41.21508691 95.3968239 -44.5625 92.9375 C-46.36407647 90.38042373 -47.56476913 88.1632346 -48.5 85.1875 C-48.83 85.1875 -49.16 85.1875 -49.5 85.1875 Z " fill="#000000" transform="translate(79.5,22.8125)"/>
<path d="M0 0 C0.99 0 1.98 0 3 0 C4.59036277 3.18072554 4.40625325 6.53685758 4 10 C2.4375 12.8125 2.4375 12.8125 1 15 C1.33 15.99 1.66 16.98 2 18 C4.49664854 19.21194203 4.49664854 19.21194203 7.4375 20.25 C12.6661491 22.46472572 12.6661491 22.46472572 14.171875 24.87890625 C14.6875 26.8125 14.6875 26.8125 15 30 C15.7734375 29.97679688 16.546875 29.95359375 17.34375 29.9296875 C24.89983153 29.7987653 30.83679135 30.61226378 38 33 C37.79503906 32.40832031 37.59007812 31.81664063 37.37890625 31.20703125 C36.0002429 27.16339184 34.68249153 23.23144751 34 19 C31.12259913 17.92097467 28.96449654 18.08685317 26 18.5625 C23.51590832 18.90481431 22.03612332 19.00833615 19.5625 18.4375 C17.21723034 16.27985191 17.26766522 14.07815008 17 11 C19.2513423 11.48243049 20.91488131 11.9460915 22.875 13.1875 C26.01333949 14.38745334 27.93226473 13.15040073 31 12 C35 12 35 12 37.5625 14.4375 C38.366875 15.283125 39.17125 16.12875 40 17 C44.03484579 18.3449486 47.95607846 18.32638601 52.1875 18.5234375 C55.30426586 19.05155616 55.98547715 19.70295261 58 22 C58.825 22 59.65 22 60.5 22 C61.325 22 62.15 22 63 22 C63.64388672 22.73669922 63.64388672 22.73669922 64.30078125 23.48828125 C66.73299198 25.65211011 68.49392001 25.30021459 71.6875 25.1875 C73.17830078 25.14689453 73.17830078 25.14689453 74.69921875 25.10546875 C75.45847656 25.07066406 76.21773438 25.03585938 77 25 C77 26.32 77 27.64 77 29 C74.21398777 29.92867074 72.38933911 30.16342217 69.5 30.1875 C68.33984375 30.20876953 68.33984375 30.20876953 67.15625 30.23046875 C65 30 65 30 62 28 C60.47219594 27.43980518 58.92882451 26.92085583 57.375 26.4375 C53.10352941 25.10352941 53.10352941 25.10352941 52 24 C50.15108054 23.76636119 48.29511969 23.58696365 46.4375 23.4375 C45.42558594 23.35371094 44.41367188 23.26992187 43.37109375 23.18359375 C42.58863281 23.12300781 41.80617187 23.06242187 41 23 C41.309375 23.886875 41.61875 24.77375 41.9375 25.6875 C43.17861422 29.55685611 44 32.93504351 44 37 C51.81816322 39.74493505 58.67889465 41.67620721 67 41 C67.99 38.69 68.98 36.38 70 34 C71.485 34.495 71.485 34.495 73 35 C73 36.65 73 38.3 73 40 C76.96 39.34 80.92 38.68 85 38 C85 38.66 85 39.32 85 40 C82.515625 41.69140625 82.515625 41.69140625 79.25 43.5625 C78.18265625 44.18253906 77.1153125 44.80257812 76.015625 45.44140625 C67.06187813 50.06905521 56.8918521 47.48821297 47.63671875 44.69140625 C44.1528586 43.7778607 40.7256083 43.52242883 37.14453125 43.24609375 C34.52355674 42.94532618 32.41209622 42.04306863 30 41 C22.11931513 39.39169697 13.90311975 39.61211245 5.9375 40.5 C-10.17246008 42.2640536 -10.17246008 42.2640536 -16 38 C-18.86985359 34.7525341 -20.25126393 32.22902681 -20.4375 27.9375 C-20.00453123 24.04078105 -19.38883919 22.05771417 -17 19 C-16.67 19 -16.34 19 -16 19 C-15.97421875 19.74765625 -15.9484375 20.4953125 -15.921875 21.265625 C-15.64810005 27.25988912 -15.64810005 27.25988912 -13.375 32.6875 C-10.15202879 34.46861567 -7.61868789 34.27836061 -4 34 C-4.49371094 33.6596875 -4.98742188 33.319375 -5.49609375 32.96875 C-8.98622708 30.3283272 -11.40037508 28.41108761 -12.0625 23.9375 C-12.00483964 20.30489714 -11.68445415 18.17073723 -10 15 C-8.68 15 -7.36 15 -6 15 C-6.185625 16.2375 -6.37125 17.475 -6.5625 18.75 C-7.14893092 22.98203946 -7.14893092 22.98203946 -6 27 C-4.31980946 28.17657468 -4.31980946 28.17657468 -2 29 C-0.865625 29.556875 0.26875 30.11375 1.4375 30.6875 C5.02904515 32.01070084 6.44907558 32.18364147 10 31 C9.87286807 29.06154129 9.87286807 29.06154129 9 27 C6.79357948 25.604415 6.79357948 25.604415 4.125 24.5625 C1.01318171 23.09785305 -0.83752342 22.17640314 -3.1875 19.625 C-4.28408381 16.08219078 -3.87640938 13.57305362 -3 10 C-2.34 9.34 -1.68 8.68 -1 8 C-0.95907063 5.66702567 -0.95758277 3.33294775 -1 1 C-0.67 0.67 -0.34 0.34 0 0 Z " fill="#000000" transform="translate(34,62)"/>
<path d="M0 0 C4.13998349 -0.32470459 6.33999001 -0.4304413 9.875 1.875 C12.70033802 4.70033802 12.94892957 5.57684501 13.4375 9.625 C13.4375 13.45192428 12.3597583 15.20931872 9.9375 18.125 C7.32524301 21.23972945 7.32524301 21.23972945 6.8125 25.3125 C7.83585332 28.08377673 7.83585332 28.08377673 10 29.9375 C14.19212634 31.42221141 17.68977757 30.77940841 22 30 C22.33 30.99 22.66 31.98 23 33 C20.36425127 35.63574873 18.90557548 36.01066083 15.125 36.4375 C9.92277809 36.23406115 6.84393166 33.72100289 3.125 30.25 C1.40459616 26.80919233 1.12757725 23.69101931 2 20 C3.4422739 17.82436649 5.04806209 15.89210909 6.73046875 13.8984375 C8.33805769 11.89518115 8.33805769 11.89518115 7.875 8.5 C7.58625 7.675 7.2975 6.85 7 6 C6.2575 5.855625 5.515 5.71125 4.75 5.5625 C2.47972261 5.09812508 0.24240521 4.58136431 -2 4 C-1.34 2.68 -0.68 1.36 0 0 Z " fill="#000000" transform="translate(90,38)"/>
<path d="M0 0 C0 1.32 0 2.64 0 4 C-2.64 4.66 -5.28 5.32 -8 6 C-6.58249437 5.88490339 -5.16598831 5.75746342 -3.75 5.625 C-2.96109375 5.55539063 -2.1721875 5.48578125 -1.359375 5.4140625 C1.09886077 4.98265026 2.80302019 4.14862845 5 3 C8.99090581 2.47944707 10.69523363 2.83003414 14.25 4.8125 C17 7 17 7 19 10 C19.125 12.6875 19.125 12.6875 19 15 C17.68 15 16.36 15 15 15 C13.375 12.625 13.375 12.625 12 10 C11.34 9.34 10.68 8.68 10 8 C7.56130387 8.21517907 5.48385378 8.78555255 3.24609375 9.77734375 C-2.2673161 12.19433352 -7.13299837 12.57650724 -13 11 C-15.296875 9.4453125 -15.296875 9.4453125 -17 8 C-15.54163185 4.15521125 -13.63541701 2.8177085 -10 1 C-6.67286218 -0.18059729 -3.50816855 -0.0797311 0 0 Z " fill="#000000" transform="translate(53,41)"/>
<path d="M0 0 C2.0861406 1.43475384 4.0207608 3.0049016 5.98828125 4.59765625 C10.39807993 7.67167125 15.82698899 7.126171 21 7 C20.6875 8.9375 20.6875 8.9375 20 11 C15.93584655 12.35471782 12.24974681 12.53849531 8 12 C4.90083882 10.30423256 2.53936862 8.49033511 -0.0625 6.125 C-2.02988429 4.67830044 -2.02988429 4.67830044 -4.625 5.6875 C-7.09279945 6.90821846 -7.09279945 6.90821846 -9 9 C-9.99 9 -10.98 9 -12 9 C-11.7153924 5.58470886 -11.20339329 4.21501576 -8.8125 1.6875 C-5.3448391 -0.39309654 -3.98004819 -0.78040161 0 0 Z " fill="#000000" transform="translate(63,57)"/>
</svg>
